<svg width="167" height="38" viewBox="0 0 167 38" fill="none" xmlns="http://www.w3.org/2000/svg">
<path d="M14.504 37.4929H14.4821C10.0764 37.4864 6.33007 35.8379 3.65543 32.7252C0.890178 29.5123 -0.400273 25.0744 0.109034 20.5492C0.758946 14.7537 7.51741 6.60512 7.80487 6.25926L8.8516 5.00514L9.91708 6.23987C10.2327 6.60512 17.666 15.2321 19.8532 18.7618C21.828 21.9423 21.4249 25.5496 18.8284 27.9479C16.6037 30.0036 12.7917 30.7697 9.81085 28.2582C8.37354 27.0461 7.57052 25.5269 7.42367 23.7395C7.1862 20.853 8.70162 17.401 12.0512 13.2184C10.842 11.7445 9.69836 10.3869 8.90472 9.45276C6.75188 12.2745 3.2836 17.443 2.89928 20.8854C2.48371 24.5896 3.5242 28.2 5.75202 30.7923C7.88298 33.2683 10.9013 34.5806 14.4821 34.587H14.4977C18.0379 34.587 20.925 33.2101 22.8528 30.6049C24.9775 27.7346 25.7243 23.5035 24.7588 19.8252C22.8966 12.7044 12.7448 2.71021 12.6448 2.61001L14.5758 0.496094C15.0164 0.92922 25.4025 11.1626 27.4772 19.0624C28.6833 23.6554 27.7678 28.7528 25.09 32.3729C23.359 34.7099 20.1188 37.4961 14.5008 37.4961L14.504 37.4929ZM13.8947 15.4842C11.2981 18.8102 10.0671 21.4995 10.2295 23.4906C10.3108 24.4764 10.7576 25.3007 11.5919 26.0021C13.4322 27.5536 15.6632 26.9718 16.9599 25.7758C17.5442 25.236 19.3064 23.2514 17.4911 20.3326C16.7724 19.1723 15.3913 17.3589 13.8947 15.4842Z" fill="#5507B9"/>
<path d="M161.018 5.97656C162.058 5.97663 162.994 6.24062 163.826 6.76855C164.658 7.2805 165.314 7.98408 165.794 8.87988C166.29 9.75983 166.538 10.76 166.538 11.8799C166.538 12.9839 166.298 13.9764 165.818 14.8564C165.338 15.7363 164.674 16.4398 163.826 16.9678C162.994 17.4797 162.058 17.7363 161.018 17.7363C160.155 17.7363 159.378 17.5599 158.69 17.208C158.002 16.8561 157.434 16.3764 156.986 15.7686C156.944 15.7078 156.905 15.6446 156.866 15.582V22.248H155.186V6.21582H156.866V8.12988C156.912 8.05868 156.959 7.98829 157.01 7.91992C157.458 7.29604 158.026 6.81646 158.714 6.48047C159.418 6.14447 160.186 5.97656 161.018 5.97656ZM146.657 5.97656C147.761 5.97656 148.754 6.23214 149.634 6.74414C150.514 7.25613 151.21 7.96053 151.722 8.85645C152.249 9.73623 152.513 10.7199 152.514 11.8076C152.514 12.9276 152.25 13.9361 151.722 14.832C151.21 15.712 150.514 16.4163 149.634 16.9443C148.754 17.4723 147.761 17.7363 146.657 17.7363C145.569 17.7363 144.577 17.4722 143.682 16.9443C142.802 16.4163 142.097 15.7036 141.569 14.8076C141.057 13.9117 140.802 12.9114 140.802 11.8076C140.802 10.7199 141.057 9.73623 141.569 8.85645C142.097 7.97648 142.802 7.28055 143.682 6.76855C144.577 6.2406 145.569 5.97661 146.657 5.97656ZM121.07 0.984375C122.27 0.984384 123.374 1.19248 124.382 1.6084C125.406 2.00835 126.294 2.58407 127.046 3.33594C127.814 4.07194 128.406 4.94415 128.822 5.95215C129.238 6.94414 129.446 8.04024 129.446 9.24023C129.446 10.4081 129.238 11.496 128.822 12.5039C128.406 13.5119 127.822 14.3925 127.07 15.1445C126.318 15.8804 125.43 16.4561 124.406 16.8721C123.398 17.2881 122.302 17.4961 121.118 17.4961H115.094V0.984375H121.07ZM137.324 5.97656C137.884 5.97656 138.396 6.08009 138.86 6.28809C139.324 6.48004 139.756 6.79178 140.156 7.22363L139.053 8.40039C138.781 8.09645 138.476 7.87996 138.141 7.75195C137.821 7.62395 137.452 7.56055 137.036 7.56055C136.172 7.56059 135.469 7.84812 134.925 8.42383C134.381 8.9838 134.108 9.816 134.108 10.9199V17.4961H132.429V6.21582H134.108V7.69922C134.209 7.53142 134.321 7.37248 134.444 7.22363C135.148 6.39183 136.108 5.97659 137.324 5.97656ZM160.754 7.56055C159.97 7.56059 159.274 7.74434 158.666 8.1123C158.074 8.48027 157.61 8.98417 157.274 9.62402C156.938 10.264 156.77 11.0084 156.77 11.8564C156.77 12.6883 156.938 13.432 157.274 14.0879C157.61 14.7278 158.074 15.2316 158.666 15.5996C159.258 15.9516 159.946 16.1279 160.73 16.1279C161.53 16.1279 162.234 15.9515 162.842 15.5996C163.45 15.2316 163.922 14.7279 164.258 14.0879C164.61 13.432 164.786 12.6883 164.786 11.8564C164.786 11.0084 164.61 10.264 164.258 9.62402C163.922 8.98411 163.45 8.48027 162.842 8.1123C162.234 7.74437 161.538 7.56055 160.754 7.56055ZM146.657 7.58398C145.873 7.58403 145.17 7.76796 144.546 8.13574C143.922 8.50374 143.433 9.00844 143.081 9.64844C142.729 10.2722 142.554 10.992 142.554 11.8076C142.554 12.6395 142.729 13.3841 143.081 14.04C143.433 14.68 143.922 15.1838 144.546 15.5518C145.17 15.9197 145.873 16.1044 146.657 16.1045C147.457 16.1045 148.161 15.9198 148.769 15.5518C149.393 15.1838 149.881 14.6716 150.233 14.0156C150.601 13.3597 150.785 12.6235 150.785 11.8076C150.785 10.9919 150.601 10.2723 150.233 9.64844C149.881 9.00844 149.393 8.50374 148.769 8.13574C148.161 7.7678 147.457 7.58398 146.657 7.58398ZM116.847 15.8643H121.022C122.318 15.8642 123.462 15.5843 124.454 15.0244C125.446 14.4484 126.222 13.6639 126.782 12.6719C127.342 11.6639 127.622 10.5117 127.622 9.21582C127.622 7.91996 127.342 6.77609 126.782 5.78418C126.222 4.79218 125.446 4.01606 124.454 3.45605C123.462 2.88014 122.318 2.59183 121.022 2.5918H116.847V15.8643Z" fill="#5507B9"/>
<path d="M81.6512 5.52051C82.7871 5.52055 83.7873 5.78454 84.6512 6.3125C85.515 6.82443 86.187 7.54398 86.6669 8.47168C87.1628 9.39958 87.411 10.4558 87.411 11.6396C87.411 12.8076 87.1629 13.8562 86.6669 14.7842C86.1869 15.6961 85.5152 16.4164 84.6512 16.9443C83.7873 17.4723 82.7871 17.7363 81.6512 17.7363C80.8994 17.7363 80.2033 17.6 79.5634 17.3281C79.267 17.2022 78.9953 17.0539 78.7469 16.8867V22.4639H74.6669V5.75977H78.8427V6.38867C79.0667 6.23244 79.3069 6.09397 79.5634 5.97559C80.2032 5.67173 80.8994 5.52051 81.6512 5.52051ZM54.9999 12.5518C54.9999 12.8715 55.0635 13.1517 55.1913 13.3916C55.3193 13.6316 55.4956 13.8163 55.7196 13.9443C55.9436 14.0723 56.2077 14.1357 56.5116 14.1357C56.9596 14.1357 57.3197 13.9921 57.5917 13.7041C57.8797 13.4161 58.0233 13.0318 58.0233 12.5518V5.75977H62.2001V12.5518C62.2001 13.5757 61.9593 14.4797 61.4794 15.2637C60.9994 16.0477 60.3277 16.6643 59.4637 17.1123C58.6158 17.5443 57.6315 17.7598 56.5116 17.7598C55.4077 17.7597 54.4234 17.5443 53.5594 17.1123C52.7115 16.6643 52.0398 16.0476 51.5438 15.2637C51.0639 14.4637 50.8241 13.5597 50.8241 12.5518V5.75977H54.9999V12.5518ZM101.377 5.47266C102.561 5.47267 103.608 5.72834 104.52 6.24023C105.448 6.73621 106.169 7.43218 106.681 8.32812C107.209 9.20813 107.473 10.2165 107.473 11.3525C107.473 11.5923 107.457 11.84 107.425 12.0957C107.409 12.3357 107.361 12.6165 107.281 12.9365L99.0487 12.9736C99.0901 13.1028 99.1383 13.2261 99.1932 13.3438C99.4172 13.8077 99.7372 14.1604 100.153 14.4004C100.569 14.6402 101.081 14.7597 101.688 14.7598C102.264 14.7598 102.769 14.6647 103.201 14.4727C103.649 14.2807 104.048 13.9839 104.4 13.584L106.585 15.7686C106.009 16.4245 105.304 16.9199 104.473 17.2559C103.657 17.5918 102.728 17.7598 101.688 17.7598C100.377 17.7597 99.2167 17.5041 98.2089 16.9922C97.201 16.4643 96.4089 15.7364 95.8329 14.8086C95.2569 13.8806 94.9686 12.8162 94.9686 11.6162C94.9686 10.4324 95.2487 9.38454 95.8085 8.47266C96.3685 7.54466 97.1287 6.81609 98.0887 6.28809C99.0647 5.7441 100.161 5.47266 101.377 5.47266ZM43.5839 0.480469C44.6719 0.480469 45.656 0.704344 46.536 1.15234C47.416 1.58434 48.1119 2.20843 48.6239 3.02441C49.1358 3.82438 49.3925 4.80024 49.3925 5.95215C49.3924 7.07208 49.1359 8.04792 48.6239 8.87988C48.1119 9.69586 47.416 10.32 46.536 10.752C45.656 11.1839 44.6718 11.4004 43.5839 11.4004H40.368V17.4961H36.0721V0.480469H43.5839ZM71.4833 5.52051C72.0431 5.52053 72.5228 5.59239 72.9227 5.73633C73.3387 5.88033 73.6914 6.1042 73.9794 6.4082L71.5555 9.64844C71.4275 9.50444 71.2428 9.3925 71.0028 9.3125C70.7789 9.21653 70.5231 9.16799 70.2352 9.16797C69.6912 9.16797 69.2668 9.33587 68.9628 9.67188C68.6588 9.99187 68.5067 10.4723 68.5067 11.1123V17.4961H64.3309V5.75977H68.5067V6.50879C69.2716 5.85011 70.2635 5.52051 71.4833 5.52051ZM93.3036 17.4961H89.1278V0H93.3036V17.4961ZM80.8827 9.24023C80.4508 9.24028 80.0588 9.34383 79.7069 9.55176C79.3551 9.74367 79.0835 10.0239 78.8915 10.3916C78.6995 10.7436 78.6034 11.1522 78.6034 11.6162C78.6034 12.0801 78.6995 12.4963 78.8915 12.8643C79.0835 13.2161 79.3476 13.4962 79.6835 13.7041C80.0354 13.9119 80.4274 14.0156 80.8593 14.0156C81.3231 14.0156 81.731 13.912 82.0829 13.7041C82.4349 13.4961 82.7073 13.2162 82.8993 12.8643C83.0913 12.4963 83.1874 12.0801 83.1874 11.6162C83.1874 11.1522 83.0913 10.7436 82.8993 10.3916C82.7073 10.0397 82.4348 9.75972 82.0829 9.55176C81.7309 9.34383 81.3306 9.24023 80.8827 9.24023ZM101.425 8.47266C100.897 8.47267 100.44 8.60046 100.057 8.85645C99.6727 9.11243 99.3768 9.47264 99.1688 9.93652C99.1201 10.0452 99.0772 10.1591 99.0399 10.2783L103.61 10.2402C103.57 10.0781 103.522 9.92831 103.465 9.79199C103.289 9.36027 103.033 9.03256 102.697 8.80859C102.361 8.58459 101.937 8.47266 101.425 8.47266ZM40.368 8.20801H42.8397C43.2557 8.20801 43.6326 8.12777 43.9686 7.96777C44.3204 7.79178 44.6006 7.53604 44.8085 7.2002C45.0164 6.86423 45.12 6.44807 45.12 5.95215C45.12 5.45626 45.0164 5.04006 44.8085 4.7041C44.6005 4.35218 44.3205 4.09555 43.9686 3.93555C43.6326 3.75955 43.2557 3.67188 42.8397 3.67188H40.368V8.20801Z" fill="#5507B9"/>
<path d="M41.642 35.154C40.9047 35.154 40.2187 35.028 39.584 34.776C38.9587 34.5147 38.408 34.1507 37.932 33.684C37.4653 33.2173 37.1013 32.676 36.84 32.06C36.5787 31.4347 36.448 30.7627 36.448 30.044C36.448 29.3253 36.5787 28.658 36.84 28.042C37.1013 27.4167 37.4653 26.8753 37.932 26.418C38.3987 25.9607 38.9447 25.606 39.57 25.354C40.2047 25.0927 40.8907 24.962 41.628 24.962C42.412 24.962 43.1073 25.088 43.714 25.34C44.33 25.592 44.8667 25.9373 45.324 26.376L43.854 27.86C43.5927 27.58 43.2753 27.3607 42.902 27.202C42.538 27.0433 42.1133 26.964 41.628 26.964C41.1987 26.964 40.802 27.0387 40.438 27.188C40.0833 27.328 39.7753 27.5333 39.514 27.804C39.262 28.0747 39.0613 28.4013 38.912 28.784C38.772 29.1667 38.702 29.5867 38.702 30.044C38.702 30.5107 38.772 30.9353 38.912 31.318C39.0613 31.7007 39.262 32.0273 39.514 32.298C39.7753 32.5687 40.0833 32.7787 40.438 32.928C40.802 33.0773 41.1987 33.152 41.628 33.152C42.132 33.152 42.5707 33.0727 42.944 32.914C43.3173 32.7553 43.6393 32.536 43.91 32.256L45.394 33.74C44.918 34.1787 44.372 34.524 43.756 34.776C43.1493 35.028 42.4447 35.154 41.642 35.154ZM55.4059 35.168C54.6592 35.168 53.9685 35.0373 53.3339 34.776C52.7085 34.5147 52.1579 34.1507 51.6819 33.684C51.2059 33.2173 50.8372 32.676 50.5759 32.06C50.3145 31.4347 50.1839 30.7627 50.1839 30.044C50.1839 29.316 50.3145 28.644 50.5759 28.028C50.8372 27.412 51.2012 26.8753 51.6679 26.418C52.1345 25.9513 52.6805 25.592 53.3059 25.34C53.9405 25.0787 54.6312 24.948 55.3779 24.948C56.1152 24.948 56.7965 25.0787 57.4219 25.34C58.0565 25.592 58.6072 25.9513 59.0739 26.418C59.5499 26.8753 59.9185 27.4167 60.1799 28.042C60.4412 28.658 60.5719 29.33 60.5719 30.058C60.5719 30.7767 60.4412 31.4487 60.1799 32.074C59.9185 32.69 59.5545 33.2313 59.0879 33.698C58.6212 34.1553 58.0705 34.5147 57.4359 34.776C56.8105 35.0373 56.1339 35.168 55.4059 35.168ZM55.3779 33.166C55.9659 33.166 56.4792 33.0353 56.9179 32.774C57.3659 32.5127 57.7112 32.1487 57.9539 31.682C58.1965 31.206 58.3179 30.66 58.3179 30.044C58.3179 29.5773 58.2479 29.1573 58.1079 28.784C57.9679 28.4013 57.7672 28.0747 57.5059 27.804C57.2445 27.524 56.9319 27.314 56.5679 27.174C56.2132 27.0247 55.8165 26.95 55.3779 26.95C54.7899 26.95 54.2719 27.0807 53.8239 27.342C53.3852 27.594 53.0445 27.9533 52.8019 28.42C52.5592 28.8773 52.4379 29.4187 52.4379 30.044C52.4379 30.5107 52.5079 30.9353 52.6479 31.318C52.7879 31.7007 52.9839 32.032 53.2359 32.312C53.4972 32.5827 53.8099 32.7927 54.1739 32.942C54.5379 33.0913 54.9392 33.166 55.3779 33.166ZM66.4472 35V25.116H67.9872L68.6452 27.09V35H66.4472ZM73.2652 35L67.4412 27.538L67.9872 25.116L73.8112 32.578L73.2652 35ZM73.2652 35L72.6772 33.026V25.116H74.8752V35H73.2652ZM84.0397 35.154C83.2277 35.154 82.5277 35.0233 81.9397 34.762C81.361 34.4913 80.829 34.0853 80.3437 33.544L81.7717 32.13C82.089 32.494 82.439 32.7787 82.8217 32.984C83.2137 33.18 83.6664 33.278 84.1797 33.278C84.6464 33.278 85.0057 33.194 85.2577 33.026C85.519 32.858 85.6497 32.6247 85.6497 32.326C85.6497 32.0553 85.5657 31.836 85.3977 31.668C85.2297 31.5 85.0057 31.3553 84.7257 31.234C84.455 31.1127 84.1517 30.996 83.8157 30.884C83.489 30.772 83.1624 30.646 82.8357 30.506C82.509 30.3567 82.2057 30.1747 81.9257 29.96C81.655 29.736 81.4357 29.4607 81.2677 29.134C81.0997 28.798 81.0157 28.378 81.0157 27.874C81.0157 27.2673 81.1604 26.7447 81.4497 26.306C81.7484 25.8673 82.159 25.536 82.6817 25.312C83.2044 25.0787 83.8064 24.962 84.4877 24.962C85.1784 24.962 85.8084 25.0833 86.3777 25.326C86.9564 25.5687 87.4324 25.9 87.8057 26.32L86.3777 27.734C86.079 27.426 85.7757 27.1973 85.4677 27.048C85.169 26.8987 84.8284 26.824 84.4457 26.824C84.063 26.824 83.7597 26.8987 83.5357 27.048C83.3117 27.188 83.1997 27.3933 83.1997 27.664C83.1997 27.916 83.2837 28.1213 83.4517 28.28C83.6197 28.4293 83.839 28.56 84.1097 28.672C84.3897 28.784 84.693 28.896 85.0197 29.008C85.3557 29.12 85.687 29.2507 86.0137 29.4C86.3404 29.5493 86.639 29.7407 86.9097 29.974C87.1897 30.198 87.4137 30.4873 87.5817 30.842C87.7497 31.1873 87.8337 31.6167 87.8337 32.13C87.8337 33.0727 87.4977 33.8147 86.8257 34.356C86.1537 34.888 85.225 35.154 84.0397 35.154ZM97.8539 35.154C97.0419 35.154 96.3232 34.9813 95.6979 34.636C95.0819 34.2907 94.5965 33.8147 94.2419 33.208C93.8965 32.592 93.7239 31.892 93.7239 31.108V25.116H95.9359V31.234C95.9359 31.626 96.0199 31.9667 96.1879 32.256C96.3559 32.5453 96.5845 32.7693 96.8739 32.928C97.1725 33.0773 97.4992 33.152 97.8539 33.152C98.2272 33.152 98.5539 33.0773 98.8339 32.928C99.1139 32.7693 99.3332 32.55 99.4919 32.27C99.6599 31.9807 99.7439 31.64 99.7439 31.248V25.116H101.956V31.122C101.956 31.906 101.783 32.6013 101.438 33.208C101.093 33.8147 100.612 34.2907 99.9959 34.636C99.3799 34.9813 98.6659 35.154 97.8539 35.154ZM108.188 35V25.116H110.386V35H108.188ZM109.882 35V33.068H114.768V35H109.882ZM121.912 35V25.256H124.11V35H121.912ZM118.818 27.034V25.116H127.204V27.034H118.818ZM132.912 35V25.116H135.11V35H132.912ZM141.493 35V25.116H143.033L143.691 27.09V35H141.493ZM148.311 35L142.487 27.538L143.033 25.116L148.857 32.578L148.311 35ZM148.311 35L147.723 33.026V25.116H149.921V35H148.311ZM160.971 35.154C160.252 35.154 159.576 35.0233 158.941 34.762C158.316 34.5007 157.77 34.1413 157.303 33.684C156.836 33.2173 156.468 32.676 156.197 32.06C155.936 31.4347 155.805 30.7627 155.805 30.044C155.805 29.3253 155.94 28.658 156.211 28.042C156.482 27.426 156.855 26.8893 157.331 26.432C157.816 25.9653 158.381 25.606 159.025 25.354C159.669 25.0927 160.36 24.962 161.097 24.962C161.946 24.962 162.716 25.116 163.407 25.424C164.107 25.732 164.686 26.1567 165.143 26.698L163.645 28.196C163.328 27.7853 162.954 27.4773 162.525 27.272C162.096 27.0667 161.61 26.964 161.069 26.964C160.49 26.964 159.972 27.0947 159.515 27.356C159.058 27.608 158.698 27.9673 158.437 28.434C158.185 28.8913 158.059 29.428 158.059 30.044C158.059 30.66 158.185 31.2013 158.437 31.668C158.689 32.1347 159.034 32.4987 159.473 32.76C159.912 33.0213 160.416 33.152 160.985 33.152C161.564 33.152 162.054 33.0447 162.455 32.83C162.866 32.606 163.178 32.2887 163.393 31.878C163.617 31.458 163.729 30.9493 163.729 30.352L165.185 31.332L160.775 31.262V29.4H165.969V29.722C165.969 30.9073 165.754 31.906 165.325 32.718C164.905 33.5207 164.317 34.1273 163.561 34.538C162.814 34.9487 161.951 35.154 160.971 35.154Z" fill="#B57900"/>
</svg>
